<?xml version="1.0" standalone="no"?><!DOCTYPE svg PUBLIC "-//W3C//DTD SVG 1.1//EN" "http://www.w3.org/Graphics/SVG/1.1/DTD/svg11.dtd"><svg t="1773904271961" class="icon" viewBox="0 0 1049 1024" version="1.1" xmlns="http://www.w3.org/2000/svg" p-id="14074" xmlns:xlink="http://www.w3.org/1999/xlink" width="16.390625" height="16"><path d="M695.0656 230.2464c0.0768-8.4992 0.1536-15.2832 0.384-30.5408l0.128-10.1632 1.92-4.48c24.32-23.8848 44.6464-44.16 86.528-86.0928l3.84-3.84a14076.3904 14076.3904 0 0 1 70.2976-70.144l10.7264-10.5984 0.1792 15.0784c0.256 19.8144 0.1536 35.6608-0.1792 71.296l-0.1536 16.2048c15.5136 7.7312 27.0848 19.4048 33.7152 34.56l32.768-0.0768 9.2672-0.0512c19.7888-0.0512 32.9984-0.0512 46.464 0l15.2576 0.0512-10.752 10.8544a22731.008 22731.008 0 0 1-88.832 89.0368l-7.1168 7.1168a29584.4352 29584.4352 0 0 0-64 64.0512l-4.48 1.8944c-39.8336 0.3328-58.5472 0.384-80.4352-0.0768-56.7808 55.808-102.7072 101.8112-203.2896 203.0592 8.32 45.312-28.7744 90.624-74.24 86.3232-48.896-0.8192-83.1744-58.2144-60.4928-100.992 12.288-29.0816 44.416-43.6224 79.0784-40.704 24.3968-24.5248 47.5648-47.6928 86.784-86.8352l14.8224-14.848c47.5648-47.488 73.4208-73.3696 101.8112-101.9392a1869.7472 1869.7472 0 0 1 0-38.144z" fill="#ffffff" p-id="14075"></path><path d="M663.808 126.6176l8.448 3.7376-6.4512 6.6048c-15.232 15.5904-31.2832 31.7696-49.5872 50.0736l-2.816 2.816-3.7376-1.28c-67.712-22.7328-134.912-29.4912-197.4016-17.8176-132.9408 21.5552-249.6 120.3456-292.7616 248.0128-47.1552 130.7392-13.056 286.0288 84.48 385.7408 119.3728 128.3584 330.496 153.5488 476.4672 56.4992 147.6352-90.1632 213.8112-288.2816 151.296-450.56l-1.5104-3.8912 2.9696-2.944c24.96-24.7808 36.096-35.7632 50.0736-49.4336l6.6048-6.5024 3.712 8.4992c40.1152 91.7504 50.3808 194.5344 28.0064 289.28-36.3008 165.2224-172.928 302.72-338.0224 340.5568-148.7104 36.6336-313.6-7.808-422.7584-114.2784-77.5424-72.8832-126.9248-175.7696-140.032-287.4624v-80.128c13.952-149.4784 102.912-287.6672 232.5248-358.8096 122.7264-70.2208 279.1424-76.8512 410.5216-18.688z" fill="#ffffff" p-id="14076"></path><path d="M580.1984 299.6992l8.6784 3.6608-6.6304 6.7072a2580.736 2580.736 0 0 1-52.3008 51.3536l-2.6624 2.56-3.5328-1.024c-105.9328-30.208-224.1024 51.6864-231.552 161.536-15.2064 112 91.3408 218.112 203.8272 202.496 109.2864-7.2704 191.1808-125.4912 160.64-231.0912l-1.024-3.584 2.56-2.6368a2544.7424 2544.7424 0 0 1 50.8672-51.2512l6.6048-6.4768 3.7376 8.4736c35.7632 81.2544 25.1648 180.5824-26.624 253.2096-48.768 70.656-133.76 114.0736-219.4944 112.1024-97.6896-0.128-191.9232-59.904-233.5488-148.096-45.1584-90.8288-31.104-206.592 34.56-283.5712 71.1168-87.8848 200.8064-118.9632 305.8944-74.368z" fill="#ffffff" p-id="14077"></path></svg>