<?xml version="1.0" standalone="no"?><!DOCTYPE svg PUBLIC "-//W3C//DTD SVG 1.1//EN" "http://www.w3.org/Graphics/SVG/1.1/DTD/svg11.dtd"><svg t="1774193660697" class="icon" viewBox="0 0 1024 1024" version="1.1" xmlns="http://www.w3.org/2000/svg" p-id="37320" id="mx_n_1774193660698" xmlns:xlink="http://www.w3.org/1999/xlink" width="16" height="16"><path d="M877.266824 486.279529h-35.930353v102.520471h-134.957177v-102.520471H313.825882v102.520471H178.898824v-102.520471H142.998588A82.703059 82.703059 0 0 0 60.235294 568.982588v350.569412a82.733176 82.733176 0 0 0 82.733177 82.763294h734.268235a82.733176 82.733176 0 0 0 82.763294-82.733176V568.982588a82.703059 82.703059 0 0 0-82.733176-82.703059" fill="#ffffff" p-id="37321"></path><path d="M615.544471 700.837647a105.441882 105.441882 0 1 0-155.045647 93.063529v99.237648h99.207529V793.901176a105.411765 105.411765 0 0 0 55.838118-93.063529" fill="#ffffff" p-id="37322"></path><path d="M313.825882 331.233882a196.517647 196.517647 0 0 1 196.276706-196.306823 196.517647 196.517647 0 0 1 196.276706 196.306823v155.01553h134.927059v-155.01553C841.306353 148.600471 692.736 0 510.102588 0S178.898824 148.600471 178.898824 331.233882v155.01553h134.927058v-155.01553z" fill="#ffffff" p-id="37323"></path><path d="M706.379294 588.8h134.927059v-102.520471h-134.927059zM178.898824 588.8h134.927058v-102.520471H178.898824z" fill="#ffffff" p-id="37324"></path></svg>