<?xml version="1.0" standalone="no"?><!DOCTYPE svg PUBLIC "-//W3C//DTD SVG 1.1//EN" "http://www.w3.org/Graphics/SVG/1.1/DTD/svg11.dtd"><svg t="1774187649121" class="icon" viewBox="0 0 1024 1024" version="1.1" xmlns="http://www.w3.org/2000/svg" p-id="16055" xmlns:xlink="http://www.w3.org/1999/xlink" width="16" height="16"><path d="M481.6 992a90.48 90.48 0 0 1-37.92-8.48 87.2 87.2 0 0 1-48-104.88L458.12 672H311a120 120 0 0 1-115-154.759l120.96-400A119.32 119.32 0 0 1 432 32.003h147.72a104 104 0 0 1 97.32 140.44l-67.32 179.56H712a120 120 0 0 1 99.32 187.359l-256 412A88 88 0 0 1 481.6 992z" p-id="16056" fill="#f4ea29"></path></svg>