<?xml version="1.0" standalone="no"?><!DOCTYPE svg PUBLIC "-//W3C//DTD SVG 1.1//EN" "http://www.w3.org/Graphics/SVG/1.1/DTD/svg11.dtd"><svg t="1774190836827" class="icon" viewBox="0 0 1024 1024" version="1.1" xmlns="http://www.w3.org/2000/svg" p-id="18118" xmlns:xlink="http://www.w3.org/1999/xlink" width="16" height="16"><path d="M759.1936 950.3232H272.9472c-107.264 0-194.2016-86.9376-194.2016-194.2016V269.824c0-107.264 86.9376-194.2016 194.2016-194.2016h486.2464c107.264 0 194.2016 86.9376 194.2016 194.2016v486.2464c0 107.264-86.9376 194.2528-194.2016 194.2528z" fill="#FC5656" p-id="18119"></path><path d="M752.4864 594.8928c-14.1312 0-25.6 11.4688-25.6 25.6s11.4688 25.6 25.6 25.6c13.056 0 23.7056 10.6496 23.7056 23.7056s-10.6496 23.7056-23.7056 23.7056H279.6544c-13.056 0-23.7056-10.6496-23.7056-23.7056s10.6496-23.7056 23.7056-23.7056c22.9888 0 41.6768-18.688 41.6768-41.6768V433.0496c0-107.3664 87.3472-194.7136 194.7136-194.7136 107.3664 0 194.7136 87.3472 194.7136 194.7136v87.296c0 14.1312 11.4688 25.6 25.6 25.6s25.6-11.4688 25.6-25.6V433.0496c0-135.5776-110.336-245.9136-245.9136-245.9136S270.1312 297.472 270.1312 433.0496v162.4576c-36.8128 4.7104-65.3824 36.1984-65.3824 74.2912 0 41.3184 33.5872 74.9056 74.9056 74.9056h122.6752c10.6496 53.0432 57.6 93.1328 113.7664 93.1328s103.1168-40.0896 113.7664-93.1328h122.6752c41.3184 0 74.9056-33.5872 74.9056-74.9056s-33.6896-74.9056-74.9568-74.9056z m-236.4416 191.744c-27.6992 0-51.3024-17.4592-60.5696-41.9328h121.1392c-9.216 24.4736-32.8704 41.9328-60.5696 41.9328z" fill="#F7F8F8" p-id="18120"></path></svg>