<?xml version="1.0" standalone="no"?><!DOCTYPE svg PUBLIC "-//W3C//DTD SVG 1.1//EN" "http://www.w3.org/Graphics/SVG/1.1/DTD/svg11.dtd"><svg t="1773939502688" class="icon" viewBox="0 0 1024 1024" version="1.1" xmlns="http://www.w3.org/2000/svg" p-id="9447" xmlns:xlink="http://www.w3.org/1999/xlink" width="16" height="16"><path d="M812.266229 2.902822l20.565303 5.503992a84.735876 84.735876 0 0 1 60.245246 103.829182l-91.007868 338.004841 6.97599 11.669316 6.78399 11.733316 6.549324 11.903983 4.223994 8.127988 4.095994 8.319988 3.946661 8.575987 1.919997 4.373327 3.733328 9.002654 1.813331 4.65066 3.477328 9.535986c15.871977 45.461267 25.983962 104.469181 25.983962 196.949046 0 165.418425-180.266404 265.962279-196.77838 270.548939-16.511976 4.58666-45.8666 8.426654-75.093224 12.735981-19.477305 2.858662-38.442611 4.629327-56.874583 5.290659l-25.898629 0.298666-16.895976 0.042667c-5.567992 0-11.071984-0.064-16.490642-0.149333l-15.999977-0.384c-39.338609-1.301331-73.25856-5.247992-95.658527-15.146644l-5.759992-2.687996a180.778403 180.778403 0 0 1-9.237319-4.90666l-6.549324-3.882661c-53.333256-32.917285-131.135809-112.746502-155.967773-261.759618-17.578641-105.450513 62.762575-200.533041 241.002315-285.290251l-118.506493-324.05286A84.671877 84.671877 0 0 1 367.786877 17.068135l20.010637-7.253323a85.311876 85.311876 0 0 1 109.183841 50.666593l121.855823 333.183514 89.08787-330.794184c12.159982-45.226601 58.879914-72.085228 104.319847-59.946579z" fill="#D38218" p-id="9448"></path><path d="M806.71957 23.510792a63.95724 63.95724 0 0 0-77.183887 41.386607l-1.066665 3.583994-89.08787 330.730185c-5.162659 19.157305-31.061288 21.098636-39.530609 4.181327l-1.066666-2.410663-121.813155-333.119514a63.978573 63.978573 0 0 0-78.335886-39.167943l-3.562661 1.173331-20.031971 7.253323a63.509241 63.509241 0 0 0-39.359943 77.930553l1.173332 3.541328 118.527827 324.031528a21.141303 21.141303 0 0 1-10.837318 26.367961c-170.666418 81.130548-244.799643 168.853087-229.183665 262.634284 22.442634 134.613137 93.397197 225.578338 165.162425 257.300958 2.986662 1.322665 6.165324 2.559996 9.535986 3.647995l5.247993 1.578664 5.610658 1.429331 2.965329 0.661333 6.250658 1.215998 3.306662 0.533333 6.997323 1.002665 7.530656 0.874665 8.127988 0.746666 8.746654 0.618666 9.450652 0.490665 10.154652 0.384 10.922651 0.298666 17.877307 0.213333 19.839971 0.042667 29.78129-0.256 61.013245-0.981332 21.759968-0.170666 6.71999-0.021333c99.925188 0 217.877016-126.997148 217.877016-266.132946 0-112.639836-12.394649-172.757081-45.013268-236.031655l-6.335991-11.925316c-2.218663-3.989328-4.479993-7.999988-6.84799-12.074649l-8.277321-13.88798a21.119969 21.119969 0 0 1-2.837329-13.56798l0.554666-2.77333 90.986534-337.983507a63.530574 63.530574 0 0 0-41.578606-76.799888l-3.605328-1.066665-20.565304-5.482659z" fill="#FFD217" p-id="9449"></path><path d="M733.183677 56.150745a64.02124 64.02124 0 0 1 69.653232-33.535951l3.882661 0.895998 20.565304 5.482659 3.605328 1.066665a63.551907 63.551907 0 0 1 42.453271 73.173227l-0.853332 3.626661-91.007867 337.962174-0.554666 2.794663a21.098636 21.098636 0 0 0 1.535998 11.029317l1.301331 2.538663 8.277321 13.88798 3.477329 6.079991 3.370661 5.994658 6.335991 11.925316c32.618619 63.274574 45.013268 123.413153 45.013268 236.031655 0 13.311981-1.066665 26.517295-3.114662 39.530609-26.090629 111.082505-118.74116 201.791706-200.618374 205.162368l-4.693327 0.106666h-6.570657l-21.205302 0.213333-59.519914 0.959999-29.013291 0.256-19.370638-0.021334-17.450641-0.234666-10.645318-0.298666-9.898652-0.384-9.194654-0.490666-8.533321-0.639999-7.935988-0.725332-7.359989-0.853332-6.826657-1.002665-3.199995-0.554666-6.122658-1.215998-2.879996-0.639999-5.482658-1.450665-5.119993-1.578664a98.090524 98.090524 0 0 1-9.30132-3.626662c-69.973231-31.72262-139.178464-122.666488-161.066432-257.236958-7.146656-43.946603 4.949326-86.57054 36.94928-127.78648 38.314611-39.189276 95.615861-77.055888 172.479748-113.599835a21.183969 21.183969 0 0 0 12.095983-20.15997l1.983997-1.023999a21.333302 21.333302 0 0 0 11.263983-23.978631l-0.682665-2.367997-115.605165-323.924861-1.151998-3.562661a64.511906 64.511906 0 0 1 3.754661-46.143933c4.373327-3.605328 9.30132-6.677324 14.719978-9.066654l4.117328-1.663997 20.031971-7.253323 3.562661-1.151998a63.999907 63.999907 0 0 1 76.885221 35.562615l1.429331 3.605328 121.855823 333.119514 1.045332 2.410663c8.085322 16.14931 32.063953 15.103978 38.69861-1.663998l0.853332-2.517329 2.815996-10.495985a20.54397 20.54397 0 0 0 5.589325-8.063988l0.853332-2.58133 84.522543-321.91953z" fill="#FFE20D" p-id="9450"></path><path d="M368.341543 383.702267c46.869265-4.90666 87.829205 31.935953 91.519866 82.325213l9.962653 136.831801c3.669328 50.38926-27.306627 94.805195-69.162566 99.199855l-18.986639 2.005331c-41.855939 4.39466-81.386548-32.597286-88.277205-82.645213l-18.687973-135.935802c-6.890657-50.047927 25.535963-94.613195 72.405228-99.541188l21.226636-2.239997z" fill="#D38218" p-id="9451"></path><path d="M370.560206 404.90757l-21.205302 2.239996c-33.343951 3.498662-57.10925 34.709283-53.951921 71.466563l0.426666 3.946661 18.709306 135.935801c5.226659 37.973278 33.279951 65.429238 61.75991 64.554573l3.157328-0.213333 18.965306-1.983997c28.479958-2.986662 51.327925-34.43195 50.346593-72.213228l-0.213333-4.223994-9.983985-136.853134c-2.730663-37.354612-31.402621-64.362573-64.447906-62.911908l-3.562662 0.277333z" fill="#FFD217" p-id="9452"></path><path d="M374.122868 404.65157c31.871954-1.386665 59.669246 23.658632 64.063906 58.943914l0.384 3.967994 8.597321 117.653162c-5.354659 27.306627-23.359966 48.298596-45.247934 52.45859l-3.498662 0.511999-18.965306 1.983997-3.157328 0.213333c-27.370627 0.853332-54.399921-24.511964-61.055911-60.223912l-0.703999-4.33066-16.895976-122.815821c6.399991-23.445299 24.469298-41.258606 47.786597-45.311934l3.925328-0.554666 21.205302-2.218663 3.562662-0.277333z" fill="#FFE20D" p-id="9453"></path><path d="M209.323108 471.552806c45.226601-10.666651 90.410535 18.133307 100.949186 64.255906l28.586625 125.311817c10.538651 46.122599-13.653313 91.242534-54.079921 100.77852l-18.28264 4.287994c-40.405274 9.535986-84.202544-19.562638-97.834524-64.981239l-36.991946-123.306487c-13.653313-45.439934 11.967983-90.879867 57.17325-101.546518l20.47997-4.799993z" fill="#D38218" p-id="9454"></path><path d="M214.485767 492.246109l-20.757303 4.821326c-31.78662 7.359989-50.559926 38.506611-42.538604 71.317229l1.002665 3.647995 37.546612 123.370487c10.261318 33.706618 41.130607 54.933253 68.4159 50.730593l3.263995-0.64 18.559973-4.287993c26.965294-6.271991 44.863935-37.439945 38.869277-71.466563l-0.853332-4.117327-29.013291-125.333151c-7.765322-33.450618-39.189276-54.186588-70.954564-48.767928l-3.541328 0.725332z" fill="#FFD217" p-id="9455"></path><path d="M221.141758 491.990109c28.415959-5.183992 56.533251 13.75998 65.066571 44.906601l0.917332 3.797328 25.983962 120.533158c-5.055993 17.663974-16.447976 31.466621-31.146621 36.522613l-3.199995 0.938665-17.279975 4.309327-3.007996 0.64c-24.319965 4.010661-51.711925-15.317311-62.335909-46.549266l-1.279998-4.138661-34.090617-120.170491c5.631992-16.063977 17.749307-28.799958 33.962617-34.133284l3.797328-1.109331 19.327972-4.821327 3.285329-0.725332z" fill="#FFE20D" p-id="9456"></path><path d="M735.999673 437.334189c-4.479993 0-10.090652 0.298666-16.575975 0.874665l-10.367985 1.066665-11.541317 1.407998-12.586648 1.770664-20.47997 3.221329-21.973302 3.839994-22.890633 4.351994-23.338633 4.77866-15.57331 3.370662-15.359978 3.477328-15.018645 3.562661-14.527978 3.626662c-91.562533 23.423966-137.962465 58.730581-137.962466 129.813144 0 47.146598 26.965294 70.165231 71.25323 75.839889l7.850655 0.831999c5.183992 0.426666 10.431985 0.639999 16.533309 0.682666l9.919986-0.042667 18.773306-0.298666c8.234655-0.256 18.453306-1.493331 30.677288-3.711995l10.965317-2.13333 11.94665-2.602663c4.159994-0.938665 8.490654-1.962664 12.970647-3.071995l14.719979-3.775995-2.154664 2.431996c-12.842648 14.463979-24.533298 28.159959-35.071948 41.130607l-10.175986 12.714648-9.386652 12.202649c-30.015956 39.893275-47.253264 71.637229-51.797258 95.551861-17.429308 91.903866 18.559973 180.479737 113.685167 180.479737 118.293161 0 196.095714-41.898606 238.356986-140.778462 37.546612-87.807872 34.986616-198.122378 8.277321-321.300865-16.14931-74.431891-64.597239-109.311841-119.146493-109.31184z" fill="#D38218" p-id="9457"></path><path d="M735.999673 458.667491c44.970601 0 84.394544 28.373292 98.303857 92.501199 25.855962 119.210493 28.309292 225.706338-7.03999 308.394216-38.57061 90.239868-108.373175 127.829147-218.751681 127.829147-77.759887 0-108.031842-74.495891-92.735865-155.17844 3.754661-19.733305 18.773306-47.466597 45.077268-82.879879l8.661321-11.43465 9.429319-11.946649 10.175986-12.458649 10.901317-12.970648 5.759992-6.65599 12.010649-13.717313 12.799981-14.207979 13.50398-14.698646c7.381323-7.935988-0.405333-20.54397-10.794651-17.493308l-14.826645 4.245328-7.082656 1.983997-19.925304 5.311992-12.181316 3.029329-11.30665 2.623996-10.410651 2.218663c-3.327995 0.682666-6.506657 1.279998-9.535987 1.834664l-8.618654 1.407998-7.743988 1.002666a130.986476 130.986476 0 0 1-9.898653 0.767998l-23.359966 0.341333-8.554654-0.064a213.141023 213.141023 0 0 1-3.839994-0.106666l-7.253323-0.426666c-2.32533-0.213333-4.629327-0.447999-6.997323-0.746666-34.666616-4.437327-52.629257-19.775971-52.629257-54.677253 0-58.389248 38.719944-87.871872 121.919823-109.141174l14.207979-3.541329 14.719978-3.498661 15.039979-3.413329 15.231977-3.285328 22.8693-4.693327 15.018645-2.901329 14.677312-2.687996 14.165313-2.45333 19.946637-3.178662 12.223982-1.727997 11.178651-1.407998 9.962652-1.045332c6.207991-0.554666 11.519983-0.853332 15.70131-0.853332z" fill="#FFD217" p-id="9458"></path><path d="M735.999673 458.667491c44.970601 0 84.394544 28.373292 98.303857 92.501199 25.855962 119.210493 28.309292 225.706338-7.03999 308.394216-17.279975 40.426608-40.810607 70.271898-71.466562 90.922535-29.823957 10.602651-64.554573 15.573311-104.618514 15.57331-77.759887 0-108.031842-74.495891-92.735865-155.17844 3.754661-19.733305 18.773306-47.466597 45.077268-82.879879l8.66132-11.43465 9.42932-11.94665 10.175985-12.458648 13.75998-16.27731 14.933311-17.066641 12.757315-14.20798 13.525314-14.698645c7.381323-7.935988-0.405333-20.54397-10.794651-17.493308l-14.826645 4.245327-7.082657 1.983997-19.925304 5.311993-12.181315 3.029329-11.306651 2.623996-10.410651 2.218663c-3.327995 0.682666-6.506657 1.279998-9.535986 1.834664l-8.618654 1.407998-7.743989 1.002665a130.986476 130.986476 0 0 1-9.898652 0.767999l-23.359966 0.341333-10.517318-0.106666-9.10932-0.512c-2.346663-0.192-4.65066-0.426666-7.018657-0.725332-34.666616-4.437327-52.629257-19.775971-52.629256-54.677254 0-33.237285 12.543982-57.087917 38.677277-75.413223 12.095982-4.479993 25.599963-8.575987 40.575941-12.394648l14.207979-3.541329 14.719978-3.498661 15.039979-3.413329 15.231977-3.285328 22.8693-4.693327 15.018645-2.901329 14.677312-2.687996 14.165313-2.45333 19.946637-3.178662 12.223982-1.727997 11.178651-1.407998 9.962652-1.045332c6.207991-0.554666 11.519983-0.853332 15.70131-0.853332z" fill="#FFE20D" p-id="9459"></path></svg>